<svg width="56" height="18" viewBox="0 0 56 18" fill="none" xmlns="http://www.w3.org/2000/svg">
<path fill-rule="evenodd" clip-rule="evenodd" d="M0 16H18.2417L2.53237 14.7292L9.12086 0L0 16Z" fill="#AFB5C0"/>
<path fill-rule="evenodd" clip-rule="evenodd" d="M17.9966 13.2852H19.6457V10.0387C19.6457 8.84737 20.0951 8.25161 20.9943 8.25161C21.2923 8.25161 21.5976 8.35023 21.9105 8.54727L22.6653 7.22304C22.1913 6.97446 21.7369 6.85013 21.302 6.85013C20.9746 6.85013 20.6912 6.90378 20.4519 7.01087C20.2173 7.11372 19.9485 7.30452 19.6457 7.58304V7.02378H17.9966V13.2852ZM9.70721 9.46663L11.4662 6.09161L13.1447 9.46663H9.70721ZM15.0282 13.2852H16.8972L11.4956 2.73584L5.896 13.2852H7.73561L8.99624 10.8745H13.8409L15.0282 13.2852Z" fill="#AFB5C0"/>
<path fill-rule="evenodd" clip-rule="evenodd" d="M52.7005 6.8501C52.0799 6.8501 51.5522 7.02798 51.1173 7.38364C50.6922 7.73941 50.4797 8.18946 50.4797 8.7337C50.4797 9.14512 50.6042 9.48163 50.8535 9.7429C51.0488 9.94872 51.386 10.1543 51.8649 10.36C52.0359 10.4331 52.2045 10.5037 52.3706 10.5722C52.5367 10.6409 52.7029 10.7116 52.869 10.7844C53.299 11.0072 53.514 11.2472 53.514 11.5044C53.514 11.9502 53.2355 12.173 52.6785 12.173C52.3999 12.173 52.1605 12.0916 51.9602 11.9287C51.8576 11.8473 51.7085 11.6566 51.5132 11.3566L50.106 11.9287C50.6042 12.9531 51.452 13.4651 52.6492 13.4651C53.3479 13.4651 53.944 13.2722 54.4375 12.8865C54.9456 12.4794 55.1998 11.9737 55.1998 11.3694C55.1998 10.898 55.0482 10.523 54.7453 10.2444C54.4424 9.96586 53.8536 9.66163 52.979 9.33147C52.3437 9.09592 52.0262 8.85803 52.0262 8.61793C52.0262 8.48089 52.0799 8.3683 52.1874 8.28047C52.2949 8.19264 52.4243 8.14862 52.5758 8.14862C52.8934 8.14862 53.1596 8.34153 53.3748 8.72724L54.7379 8.09084C54.2934 7.26375 53.6141 6.8501 52.7005 6.8501ZM44.9755 13.2851H46.6245V10.0387C46.6245 8.84724 47.074 8.25147 47.9731 8.25147C48.2711 8.25147 48.5765 8.3502 48.8893 8.54724L49.6441 7.2229C49.1701 6.97444 48.7158 6.8501 48.2809 6.8501C47.9535 6.8501 47.6701 6.90375 47.4308 7.01084C47.1962 7.1137 46.9274 7.30438 46.6245 7.58301V7.02364H44.9755V13.2851ZM23.8379 13.2851H25.4869V10.0515C25.4869 9.39581 25.5932 8.91592 25.8058 8.61158C26.0183 8.30724 26.3566 8.15507 26.8209 8.15507C27.5538 8.15507 27.9202 8.71232 27.9202 9.8265V13.2851H29.5767V10.0515C29.5767 9.38724 29.6804 8.90512 29.8882 8.60512C30.0958 8.30512 30.4269 8.15507 30.8812 8.15507C31.2721 8.15507 31.553 8.28153 31.7242 8.53444C31.8902 8.78301 31.9733 9.20724 31.9733 9.80724V13.2851H33.6298V9.41507C33.6298 7.70512 32.8259 6.8501 31.2184 6.8501C30.334 6.8501 29.6328 7.15867 29.115 7.77581C28.6459 7.15867 28.0082 6.8501 27.202 6.8501C26.8403 6.8501 26.5398 6.90375 26.3005 7.01084C26.0756 7.1137 25.8044 7.31084 25.4869 7.60227V7.02364H23.8379V13.2851Z" fill="#AFB5C0"/>
<mask id="mask0_548_3615" style="mask-type:alpha" maskUnits="userSpaceOnUse" x="34" y="5" width="10" height="9">
<path d="M38.9299 6.01874C38.9135 6.02901 38.5599 6.2489 37.9271 6.46509C37.3354 6.66732 36.3701 6.90859 35.1316 6.90859C34.8994 6.90859 34.7114 7.058 34.7114 7.24266C34.7114 8.27726 34.8772 9.25716 35.204 10.1536C35.4865 10.9302 35.8845 11.6336 36.3864 12.2451C36.816 12.7684 37.3133 13.2101 37.8257 13.5228C38.3241 13.8281 38.798 13.9886 39.1937 13.9886C39.5893 13.9886 40.0621 13.829 40.5605 13.5265C41.073 13.2157 41.5714 12.7748 42.0009 12.2533C42.5028 11.6428 42.9009 10.9395 43.1833 10.1618C43.5102 9.26361 43.6759 8.28192 43.6759 7.24266C43.6759 7.058 43.488 6.90859 43.2557 6.90859C42.0172 6.90859 41.0519 6.66732 40.4613 6.46509C39.8286 6.2489 39.475 6.02901 39.4586 6.01874C39.3809 5.96816 39.2875 5.94287 39.1942 5.94287C39.1008 5.94287 39.0074 5.96816 38.9299 6.01874ZM38.3665 12.0623C38.0567 11.874 37.7561 11.6081 37.4963 11.2928C37.1928 10.9245 36.9521 10.5009 36.7812 10.0331C36.5836 9.49324 36.4835 8.90308 36.4835 8.28001C36.4835 8.1688 36.5971 8.07874 36.7376 8.07874C37.4864 8.07874 38.0701 7.93345 38.4279 7.81165C38.8105 7.6815 39.0243 7.54901 39.0342 7.54287C39.128 7.48192 39.26 7.48192 39.3539 7.54287C39.3638 7.54901 39.5776 7.6815 39.9601 7.81165C40.3173 7.93345 40.9009 8.07874 41.6498 8.07874C41.7902 8.07874 41.9039 8.1688 41.9039 8.28001C41.9039 8.90594 41.8036 9.49716 41.606 10.0381C41.4352 10.5065 41.1946 10.9301 40.8912 11.2978C40.6314 11.6119 40.3299 11.8774 40.0202 12.0646C39.7187 12.2468 39.4329 12.3429 39.1937 12.3429C38.9544 12.3429 38.6679 12.2462 38.3665 12.0623Z" fill="white"/>
</mask>
<g mask="url(#mask0_548_3615)">
<path fill-rule="evenodd" clip-rule="evenodd" d="M34.1084 14.5177H44.2794V5.41382H34.1084V14.5177Z" fill="#AFB5C0"/>
</g>
</svg>
