<svg width="16" height="16" viewBox="0 0 16 16" fill="none" xmlns="http://www.w3.org/2000/svg">
<path d="M11.9895 0.242676C13.4302 0.326898 14.7268 1.03725 15.3983 2.61753C16.081 4.2222 15.7773 5.71493 14.6004 6.99046C13.7671 7.89142 12.8717 8.73697 11.9962 9.59915C11.6172 9.97593 11.0088 9.98702 10.6796 9.64126C10.3472 9.29107 10.3826 8.81012 10.7827 8.40895C11.6416 7.54678 12.5115 6.69679 13.3615 5.82686C14.6414 4.51698 14.0729 2.43357 12.3043 1.9637C11.5695 1.76866 10.8636 1.90386 10.304 2.42471C9.40411 3.2625 8.55745 4.15349 7.66093 4.99239C7.47032 5.1697 7.1567 5.32374 6.91068 5.30823C6.2513 5.26722 5.91774 4.46932 6.37431 3.99391C7.3483 2.96606 8.36003 1.97466 9.40744 1.02174C10.048 0.445475 10.8824 0.248217 11.9895 0.242676ZM0.242676 11.7712C0.249325 10.6697 0.63276 9.71662 1.40517 8.93202C2.25737 8.0643 3.12287 7.20988 3.98726 6.35325C4.39729 5.94654 4.90152 5.91551 5.2495 6.2646C5.61077 6.6303 5.5753 7.08909 5.14754 7.51907C4.32526 8.34467 3.48857 9.1592 2.67405 9.99367C1.6667 11.0232 1.62459 12.4129 2.55215 13.3471C3.44092 14.2403 4.90928 14.2447 5.83795 13.3404C6.68128 12.517 7.50245 11.6704 8.34468 10.847C8.85002 10.3527 9.618 10.5289 9.75209 11.1938C9.79974 11.4332 9.70333 11.7934 9.5371 11.9696C8.62284 12.9337 7.70858 13.9045 6.71231 14.78C5.4933 15.8505 4.06373 16.0278 2.57321 15.3784C1.13256 14.7511 0.246 13.3371 0.242676 11.7712ZM11.4033 5.48775C11.3501 5.58749 11.288 5.8047 11.1484 5.94654C9.47056 7.64973 7.78498 9.34528 6.09172 11.0331C5.73156 11.3933 5.21957 11.3689 4.88157 11.0276C4.54025 10.683 4.54912 10.2098 4.92923 9.82854C6.59152 8.16182 8.26046 6.49842 9.92718 4.83724C10.1965 4.56795 10.5145 4.45492 10.8824 4.61561C11.2116 4.75745 11.3789 5.01899 11.4033 5.48775Z" fill="#571AFF"/>
</svg>
