<svg width="20" height="20" viewBox="0 0 20 20" fill="none" xmlns="http://www.w3.org/2000/svg">
<path fill-rule="evenodd" clip-rule="evenodd" d="M5.797 1H14.2021C17.263 1 18.991 2.7361 19 5.797V14.203C19 17.263 17.263 19 14.2021 19H5.797C2.7361 19 1 17.263 1 14.203V5.797C1 2.7361 2.7361 1 5.797 1ZM10.0441 15.274C10.432 15.274 10.7551 14.986 10.7911 14.599V5.428C10.8271 5.149 10.693 4.8691 10.45 4.717C10.1971 4.564 9.89113 4.564 9.64903 4.717C9.40513 4.8691 9.27103 5.149 9.29713 5.428V14.599C9.34303 14.986 9.66613 15.274 10.0441 15.274ZM14.185 15.274C14.563 15.274 14.8861 14.986 14.932 14.599V11.647C14.9581 11.3581 14.824 11.089 14.5801 10.936C14.338 10.783 14.032 10.783 13.78 10.936C13.5361 11.089 13.402 11.3581 13.438 11.647V14.599C13.474 14.986 13.7971 15.274 14.185 15.274ZM6.59706 14.599C6.56106 14.986 6.23796 15.274 5.85006 15.274C5.46306 15.274 5.13906 14.986 5.10396 14.599V8.37997C5.07696 8.10007 5.21106 7.82197 5.45496 7.66897C5.69706 7.51597 6.00396 7.51597 6.24696 7.66897C6.48906 7.82197 6.62496 8.10007 6.59706 8.37997V14.599Z" fill="#571AFF"/>
</svg>
