<svg width="20" height="20" viewBox="0 0 20 20" fill="none" xmlns="http://www.w3.org/2000/svg">
<path d="M10 0C12.6522 0 15.1957 1.05357 17.0711 2.92893C18.9464 4.8043 20 7.34784 20 10C20 12.6522 18.9464 15.1957 17.0711 17.0711C15.1957 18.9464 12.6522 20 10 20C7.34784 20 4.8043 18.9464 2.92893 17.0711C1.05357 15.1957 0 12.6522 0 10C0 7.34784 1.05357 4.8043 2.92893 2.92893C4.8043 1.05357 7.34784 0 10 0V0ZM2.55375 7.9975C2.46125 8.09 2.46125 8.09 2.55375 8.18C2.3075 8.57875 1.77875 8.6275 1.4 8.3875C1.18408 9.5404 1.20208 10.7249 1.45296 11.8707C1.70383 13.0165 2.18245 14.1002 2.86037 15.0574C3.5383 16.0146 4.4017 16.8258 5.39929 17.4427C6.39688 18.0597 7.50829 18.4698 8.6675 18.6488L8.66 18.6425L8.51 18.5675C8.79125 18.4775 9.16375 18.4775 9.44125 18.4775C9.34875 17.93 9.34875 17.4762 9.34875 16.9275C9.34875 16.9275 7.20875 15.38 7.20875 14.4675C7.20875 13.555 7.4875 13.1012 7.20875 13.1012C6.7425 13.1012 6.18375 13.4662 6.09125 13.1012C5.905 12.5537 5.5325 12.0988 4.97375 11.9175C3.6925 11.9175 3.50875 10.5375 3.48625 9.115L3.485 8.7275C3.485 8.27 2.92625 8.27 2.55375 7.9975V7.9975ZM10.5288 1.26625L10.6362 1.295C12.0537 1.7275 12.095 3.1575 10.9312 2.9825C10.9312 3.43625 10.9312 3.9825 10.8387 4.53C10.745 5.4425 9.6275 5.17 9.34875 5.625C9.07125 6.08125 9.9075 6.53625 10.8387 6.35375C11.1175 6.35375 10.8387 6.07875 11.0262 5.98875C11.3975 5.89875 11.8625 5.89875 12.235 5.98875C11.8558 6.80836 11.4201 7.60068 10.9312 8.36C10.7437 8.6325 10.9312 9.18 10.9312 9.54375C10.9312 12.28 9.6275 8.90625 9.44125 8.9975C9.255 9.18 8.41875 8.815 8.04625 8.815C7.67375 8.815 7.85875 9.54375 7.4875 9.54375C6.7425 9.54375 6.92875 9.36125 6.92875 9.63375C6.92875 9.99875 7.02 10.7288 7.02 11.8225C7.02 12.1875 7.765 11.7325 8.23 11.7325C8.78875 11.7325 9.16125 12.1875 9.53375 12.37C10.1837 12.645 10.8363 13.5563 11.3013 13.645C11.7663 13.7388 11.3938 14.4663 11.9513 14.375C12.23 14.285 12.6025 14.4675 12.7887 14.74C13.0687 15.105 12.8825 15.5625 12.51 15.835C11.9525 16.3813 11.7662 17.0188 11.4875 18.295C11.64 18.245 11.82 18.3725 11.9688 18.5263C13.3697 18.202 14.6693 17.538 15.753 16.5928C16.8366 15.6476 17.671 14.4502 18.1825 13.1062C17.475 13.8575 16.6575 13.915 16.9 13.2788C16.62 12.7325 16.2475 12.275 15.7825 11.82C14.9438 11.0913 14.1987 9.7225 16.8062 7.8075C16.4025 6.78 17.4025 5.82 18.0375 6.54C17.3971 5.05194 16.3562 3.77088 15.0306 2.83953C13.7051 1.90817 12.147 1.36309 10.53 1.265L10.5288 1.26625Z" fill="#2C70F4"/>
</svg>
