<svg width="20" height="20" viewBox="0 0 20 20" fill="none" xmlns="http://www.w3.org/2000/svg">
<path fill-rule="evenodd" clip-rule="evenodd" d="M16 8C16 12.4183 12.4183 16 8 16C3.58172 16 0 12.4183 0 8C0 3.58172 3.58172 0 8 0C12.4183 0 16 3.58172 16 8ZM9.00009 17C13.4184 17 17.0001 13.4183 17.0001 9C17.0001 8.34655 16.9217 7.71139 16.7739 7.10341C18.7143 8.34783 20 10.5238 20 13C20 16.866 16.866 20 13 20C10.5238 20 8.3478 18.7142 7.10339 16.7738C7.7114 16.9216 8.3466 17 9.00009 17ZM8.86188 6.4719C8.41723 6.02658 8.00192 6.00058 7.98458 5.99992C7.6326 5.99992 7.33328 6.29924 7.33328 6.66656C7.33328 7.0972 7.41861 7.1672 8.16191 7.35319C8.84921 7.52519 9.99983 7.81317 9.99983 9.33311C9.99983 10.2011 9.44119 10.9344 8.66656 11.2104V11.333C8.66656 11.7017 8.36857 11.9997 7.99992 11.9997C7.63193 11.9997 7.33328 11.7017 7.33328 11.333V11.1997C7.00529 11.0857 6.59798 10.8737 6.19533 10.4717C5.93534 10.2111 5.93534 9.78909 6.19533 9.52844C6.45598 9.26845 6.87796 9.26845 7.13795 9.52844C7.5826 9.97375 7.99858 9.99975 8.01592 10.0004C8.3679 9.99975 8.66656 9.7011 8.66656 9.33311C8.66656 8.90313 8.58189 8.83313 7.83859 8.64714L7.83844 8.6471C7.15111 8.4751 6 8.18705 6 6.66656C6 5.79926 6.55931 5.06596 7.33328 4.78997V4.66664C7.33328 4.29865 7.63193 4 7.99992 4C8.36857 4 8.66656 4.29865 8.66656 4.66664V4.80063C8.99521 4.91463 9.40252 5.12662 9.80451 5.5286C10.0652 5.78926 10.0652 6.21124 9.80451 6.4719C9.54452 6.73189 9.12254 6.73189 8.86188 6.4719Z" fill="#571AFF"/>
</svg>
