<svg width="18" height="18" viewBox="0 0 18 18" fill="none" xmlns="http://www.w3.org/2000/svg">
<path fill-rule="evenodd" clip-rule="evenodd" d="M5.14873 0.23964C5.46825 -0.07988 5.98629 -0.07988 6.30581 0.23964L9 2.93383L11.6942 0.23964C12.0137 -0.07988 12.5317 -0.07988 12.8513 0.23964C13.1708 0.55916 13.1708 1.0772 12.8513 1.39672L10.9753 3.27273H17.1818C17.6337 3.27273 18 3.63904 18 4.09091V7.36364C18 7.81551 17.6337 8.18182 17.1818 8.18182H16.7727V17.1818C16.7727 17.6337 16.4064 18 15.9545 18H2.04545C1.59359 18 1.22727 17.6337 1.22727 17.1818V8.18182H0.818182C0.366312 8.18182 0 7.81551 0 7.36364V4.09091C0 3.63904 0.366312 3.27273 0.818182 3.27273H7.02473L5.14873 1.39672C4.82921 1.0772 4.82921 0.55916 5.14873 0.23964ZM9 6.54545C9.45187 6.54545 9.81818 6.91177 9.81818 7.36364V16.3636H8.18182V7.36364C8.18182 6.91177 8.54813 6.54545 9 6.54545Z" fill="#571AFF"/>
</svg>
