<svg width="20" height="20" viewBox="0 0 20 20" fill="none" xmlns="http://www.w3.org/2000/svg">
<path fill-rule="evenodd" clip-rule="evenodd" d="M20 10.0048C20 15.5276 15.5228 20.0048 10 20.0048C4.47715 20.0048 0 15.5276 0 10.0048C0 4.48191 4.47715 0.00476074 10 0.00476074C15.5228 0.00476074 20 4.48191 20 10.0048ZM5.14293 8.43853C5.14293 8.03067 5.52667 7.70004 6.00004 7.70004L11.9013 7.70004L10.6005 6.57928C10.2658 6.29088 10.2658 5.82329 10.6005 5.5349C10.9352 5.2465 11.4779 5.2465 11.8126 5.5349L14.5766 7.91634C14.8217 8.12754 14.8951 8.44518 14.7624 8.72114C14.6297 8.99709 14.3172 9.17702 13.9705 9.17702H6.00004C5.52667 9.17702 5.14293 8.84638 5.14293 8.43853ZM14 12.3096C14.4734 12.3096 14.8571 11.979 14.8571 11.5711C14.8571 11.1632 14.4734 10.8326 14 10.8326H6.02952C5.68285 10.8326 5.37032 11.0125 5.23765 11.2885C5.10499 11.5644 5.17832 11.8821 5.42345 12.0933L8.18741 14.4747C8.52214 14.7631 9.06483 14.7631 9.39955 14.4747C9.73427 14.1863 9.73427 13.7187 9.39955 13.4303L8.09876 12.3096H14Z" fill="#571AFF"/>
</svg>
