<?xml version="1.0" standalone="no"?><!DOCTYPE svg PUBLIC "-//W3C//DTD SVG 1.1//EN" "http://www.w3.org/Graphics/SVG/1.1/DTD/svg11.dtd"><svg t="1708400501757" class="icon" viewBox="0 0 1024 1024" version="1.1" xmlns="http://www.w3.org/2000/svg" p-id="4443" width="32" height="32" xmlns:xlink="http://www.w3.org/1999/xlink"><path d="M448 896H149.333333c-12.8 0-21.333333-8.533333-21.333333-21.333333V576c0-12.8 8.533333-21.333333 21.333333-21.333333h298.666667c12.8 0 21.333333 8.533333 21.333333 21.333333v298.666667c0 12.8-8.533333 21.333333-21.333333 21.333333zM170.666667 853.333333h256V597.333333H170.666667v256zM448 469.333333H149.333333c-12.8 0-21.333333-8.533333-21.333333-21.333333V149.333333c0-12.8 8.533333-21.333333 21.333333-21.333333h298.666667c12.8 0 21.333333 8.533333 21.333333 21.333333v298.666667c0 12.8-8.533333 21.333333-21.333333 21.333333zM170.666667 426.666667h256V170.666667H170.666667v256zM874.666667 896H576c-12.8 0-21.333333-8.533333-21.333333-21.333333V576c0-12.8 8.533333-21.333333 21.333333-21.333333h298.666667c12.8 0 21.333333 8.533333 21.333333 21.333333v298.666667c0 12.8-8.533333 21.333333-21.333333 21.333333z m-277.333334-42.666667h256V597.333333H597.333333v256zM725.333333 490.666667c-51.2 0-100.266667-19.2-136.533333-55.466667S533.333333 349.866667 533.333333 298.666667s19.2-100.266667 55.466667-136.533334S674.133333 106.666667 725.333333 106.666667s100.266667 19.2 136.533334 55.466666 55.466667 85.333333 55.466666 136.533334-19.2 100.266667-55.466666 136.533333-85.333333 55.466667-136.533334 55.466667z m0-341.333334c-40.533333 0-76.8 14.933333-106.666666 44.8-27.733333 27.733333-42.666667 66.133333-42.666667 104.533334s14.933333 76.8 42.666667 104.533333c27.733333 27.733333 66.133333 44.8 106.666666 44.8s76.8-14.933333 106.666667-44.8c27.733333-27.733333 42.666667-66.133333 42.666667-104.533333s-14.933333-76.8-42.666667-104.533334C802.133333 164.266667 765.866667 149.333333 725.333333 149.333333z" fill="#707070" p-id="4444"></path></svg>