<?xml version="1.0" standalone="no"?>
<!DOCTYPE svg PUBLIC "-//W3C//DTD SVG 20010904//EN"
 "http://www.w3.org/TR/2001/REC-SVG-20010904/DTD/svg10.dtd">
<svg version="1.0" xmlns="http://www.w3.org/2000/svg"
 width="200.000000pt" height="200.000000pt" viewBox="0 0 200.000000 200.000000"
 preserveAspectRatio="xMidYMid meet">

<g transform="translate(0.000000,200.000000) scale(0.100000,-0.100000)"
fill="#000000" stroke="none">
<path d="M0 1000 l0 -1000 1000 0 1000 0 0 1000 0 1000 -1000 0 -1000 0 0
-1000z m1303 452 l297 -298 0 -150 -1 -149 -300 305 -300 305 -299 -305 -299
-305 0 145 0 145 297 303 c163 166 299 302 302 302 3 0 139 -134 303 -298z
m-242 -329 c97 -94 104 -73 -77 -254 l-159 -159 88 -87 87 -88 160 160 160
160 72 -73 73 -72 -230 -230 c-127 -127 -234 -229 -240 -228 -5 2 -111 105
-234 230 l-224 228 175 177 c96 98 197 202 224 230 27 29 55 53 62 53 7 0 36
-21 63 -47z"/>
</g>
</svg>
